<svg xmlns="http://www.w3.org/2000/svg" width="81.751" height="81.751"><path d="M42.915 47.213c13.017 0 23.608-10.587 23.608-23.605C66.523 10.588 55.932 0 42.915 0c-13.019 0-23.61 10.588-23.61 23.608 0 13.018 10.591 23.605 23.61 23.605zM25.044 16.33c5.312-.479 27.158-4.866 28.155-7.842.769 5.4 4.817 13.048 8.936 16.823-.867 9.847-9.147 17.603-19.222 17.603-10.649 0-19.308-8.664-19.308-19.308a19.222 19.222 0 011.439-7.276zm50.692 44.949v20.473H10.091V61.279c0-3.399.934-6.57 2.541-9.305 2.742 3.195 6.557 4.979 10.434 4.715 2.144-.146 4.13-.929 5.707-2.222.208-.144.593-.401.899-.78.757-.871 1.241-1.82 1.673-2.65.179-.35.362-.703.572-1.05.26-.429.547-1.145.474-2.096a26.357 26.357 0 0010.525 2.192c6.849 0 13.076-2.633 17.78-6.917 8.558 1.595 15.04 9.091 15.04 18.113zM13.59 48.475a119.91 119.91 0 01-3.558-6.28h-.01c-.027-.055-.049-.114-.076-.171-.031-.055-.064-.111-.094-.169l.007-.007a115.788 115.788 0 01-2.938-6.597c-2.378-5.832.149-11.784 4.959-12.99.208-.064.411-.157.618-.178 1.273-.096 2.563.283 3.838.395 1.628.147 2.287 8.086.198 8.073-.771-.009-3.087-.404-3.821-.156-.646.219-.717 1.258-.403 2.031.827 2.035 2.231 4.459 3.29 6.531l.004-.007c.029.059.054.117.082.18.032.054.063.116.089.169l-.002.004c1.035 2.076 2.153 4.649 3.297 6.529.435.704 1.312 1.271 1.876.878.631-.44 1.689-2.53 2.14-3.164 1.226-1.684 7.222 3.559 6.375 4.959-.666 1.091-1.124 2.341-1.962 3.308-.138.174-.338.27-.507.401-3.831 3.15-10.118 1.647-13.402-3.739z"/></svg>