<?xml version="1.0" encoding="utf-8"?><svg xmlns="http://www.w3.org/2000/svg" xmlns:xlink="http://www.w3.org/1999/xlink"><symbol viewBox="0 0 511.634 511.634" id="calendar" xmlns="http://www.w3.org/2000/svg"><path d="M482.513 83.942c-7.225-7.233-15.797-10.85-25.694-10.85h-36.541v-27.41c0-12.56-4.477-23.315-13.422-32.261C397.906 4.475 387.157 0 374.591 0h-18.268c-12.565 0-23.318 4.475-32.264 13.422-8.949 8.945-13.422 19.701-13.422 32.261v27.41h-109.63v-27.41c0-12.56-4.475-23.315-13.422-32.261C178.64 4.475 167.886 0 155.321 0H137.05c-12.562 0-23.317 4.475-32.264 13.422-8.945 8.945-13.421 19.701-13.421 32.261v27.41H54.823c-9.9 0-18.464 3.617-25.697 10.85-7.233 7.232-10.85 15.8-10.85 25.697v365.453c0 9.89 3.617 18.456 10.85 25.693 7.232 7.231 15.796 10.849 25.697 10.849h401.989c9.897 0 18.47-3.617 25.694-10.849 7.234-7.234 10.852-15.804 10.852-25.693V109.639c-.001-9.9-3.615-18.464-10.845-25.697zM137.047 475.088H54.823v-82.23h82.224v82.23zm0-100.498H54.823v-91.358h82.224v91.358zm0-109.639H54.823v-82.223h82.224v82.223zm-6.42-130.618c-1.809-1.809-2.712-3.946-2.712-6.423V45.686c0-2.474.903-4.617 2.712-6.423 1.809-1.809 3.946-2.712 6.423-2.712h18.271c2.474 0 4.617.903 6.423 2.712 1.809 1.807 2.714 3.949 2.714 6.423v82.224c0 2.478-.909 4.615-2.714 6.423-1.807 1.809-3.946 2.712-6.423 2.712H137.05c-2.474.001-4.614-.903-6.423-2.712zm116.056 340.755h-91.365v-82.23h91.365v82.23zm0-100.498h-91.365v-91.358h91.365v91.358zm0-109.639h-91.365v-82.223h91.365v82.223zm109.64 210.137h-91.364v-82.23h91.364v82.23zm0-100.498h-91.364v-91.358h91.364v91.358zm0-109.639h-91.364v-82.223h91.364v82.223zm-6.427-130.618c-1.807-1.809-2.707-3.946-2.707-6.423V45.686c0-2.474.9-4.617 2.707-6.423 1.808-1.809 3.949-2.712 6.427-2.712h18.268c2.478 0 4.617.903 6.427 2.712 1.808 1.807 2.707 3.949 2.707 6.423v82.224c0 2.478-.903 4.615-2.707 6.423-1.807 1.809-3.949 2.712-6.427 2.712h-18.268c-2.477.001-4.626-.903-6.427-2.712zm106.916 340.755h-82.228v-82.23h82.228v82.23zm0-100.498h-82.228v-91.358h82.228v91.358zm0-109.639h-82.228v-82.223h82.228v82.223z"/></symbol><symbol viewBox="0 0 81.751 81.751" id="consultation" xmlns="http://www.w3.org/2000/svg"><path d="M42.915 47.213c13.017 0 23.608-10.587 23.608-23.605C66.523 10.588 55.932 0 42.915 0c-13.019 0-23.61 10.588-23.61 23.608 0 13.018 10.591 23.605 23.61 23.605zM25.044 16.33c5.312-.479 27.158-4.866 28.155-7.842.769 5.4 4.817 13.048 8.936 16.823-.867 9.847-9.147 17.603-19.222 17.603-10.649 0-19.308-8.664-19.308-19.308a19.222 19.222 0 011.439-7.276zm50.692 44.949v20.473H10.091V61.279c0-3.399.934-6.57 2.541-9.305 2.742 3.195 6.557 4.979 10.434 4.715 2.144-.146 4.13-.929 5.707-2.222.208-.144.593-.401.899-.78.757-.871 1.241-1.82 1.673-2.65.179-.35.362-.703.572-1.05.26-.429.547-1.145.474-2.096a26.357 26.357 0 0010.525 2.192c6.849 0 13.076-2.633 17.78-6.917 8.558 1.595 15.04 9.091 15.04 18.113zM13.59 48.475a119.91 119.91 0 01-3.558-6.28h-.01c-.027-.055-.049-.114-.076-.171-.031-.055-.064-.111-.094-.169l.007-.007a115.788 115.788 0 01-2.938-6.597c-2.378-5.832.149-11.784 4.959-12.99.208-.064.411-.157.618-.178 1.273-.096 2.563.283 3.838.395 1.628.147 2.287 8.086.198 8.073-.771-.009-3.087-.404-3.821-.156-.646.219-.717 1.258-.403 2.031.827 2.035 2.231 4.459 3.29 6.531l.004-.007c.029.059.054.117.082.18.032.054.063.116.089.169l-.002.004c1.035 2.076 2.153 4.649 3.297 6.529.435.704 1.312 1.271 1.876.878.631-.44 1.689-2.53 2.14-3.164 1.226-1.684 7.222 3.559 6.375 4.959-.666 1.091-1.124 2.341-1.962 3.308-.138.174-.338.27-.507.401-3.831 3.15-10.118 1.647-13.402-3.739z"/></symbol><symbol viewBox="0 0 16 16" id="cubes" xmlns="http://www.w3.org/2000/svg"><path d="M11 6.6V2.8L7 1 3 2.8V7L0 8.3v4.4l4 1.8L7.5 13l3.5 1.6 4-1.8V8.3l-4-1.7zM7 2.1l2.8 1.2-2.7 1.1-2.6-1.2L7 2.1zM7 5v2.9L4 6.6v-3L7 5zm-3 8.5l-3-1.3v-3l3 1.4v2.9zM4 10L1.4 8.8 4 7.7l2.8 1.2L4 10zm7 3.5l-3-1.3v-3l3 1.4v2.9zm0-3.5L8.4 8.8 11 7.7l2.8 1.2L11 10z"/></symbol><symbol viewBox="0 0 1920 1920" id="dog" xmlns="http://www.w3.org/2000/svg"><style>.dst1{fill:none;stroke:#231f20;stroke-width:50;stroke-linecap:round;stroke-linejoin:round;stroke-miterlimit:10}</style><path d="M607.4 1187.8c-18.1 43.7-22.2 78.4-18.4 105.8 0 0-290.3-78.6-290.3-290.3.1.1 142.8 214.7 308.7 184.5zM1280 444.3c-24-36.4-50.6-32.4-50.6-32.4s-98 106-62 102c4.8-.5 11 .3 18 2 46 11.2 130.5 61.8 128 40-6.6-56.3-19.6-90.7-33.4-111.6zm-114.6 139.5c-4.6 41.4-12.2 89.1-19 128.6 0 0 53.7 86.5 230.4 81.3-5.9-29.4-.7-58.9 30.6-92.8 0 0 86-21.3 140-23.3s38-73.8 38-73.8 56-58 28-94h-154s-24-80-126-74c-19.5 1.1-37.3 4-53.4 8.4 13.8 21 26.8 55.3 33.4 111.6 2.5 21.8-82-28.8-128-40-10.4 19.4-17.1 42.2-20 68zm166 770l-18-172.2c-19.1 18.8-39.4 36.2-60.2 52.3-8.1 63.9-16.8 129.9-16.8 129.9s30.6 34.9 50.4 68.3l126.5-9.4c-11.9-75.1-81.9-68.9-81.9-68.9zm-180 118c92 82 152 0 152 0-1.2-10.9-7.8-25.2-16.5-39.7-19.9-33.4-50.4-68.3-50.4-68.3s8.8-66 16.8-129.9c20.8-16.1 41.1-33.5 60.2-52.3 26.9-26.5 51.5-55.7 72-87.8 95.1-148.9 6.5-224.3-8.6-300-176.7 5.1-230.4-81.3-230.4-81.3-8 46.4-15 81.3-15 81.3s-72 65.9-146 128-310 102.1-378 266.1c-18.1 43.7-22.2 78.4-18.4 105.8 10.5 75.3 80.4 95.2 80.4 95.2s-22 29.9 0 83.9l332-.9s34-67.9-50-83c0 0 77.3-22.6 170.7-71.7l29.2 154.6z" id="dLayer_6"/><g id="dSTROKES"><g id="dXMLID_1_"><path class="dst1" d="M1280 444.3c16.1-4.4 33.9-7.3 53.4-8.4 102-6 126 74 126 74h154c28 36-28 94-28 94s16 71.8-38 73.8-140 23.3-140 23.3c-31.3 33.9-36.5 63.4-30.6 92.8 15.2 75.8 103.7 151.2 8.6 300-20.5 32.1-45.1 61.3-72 87.8-19.1 18.8-39.4 36.2-60.2 52.3-8.1 63.9-16.8 129.9-16.8 129.9s30.6 34.9 50.4 68.3c8.7 14.5 15.3 28.8 16.5 39.7 0 0-60 82-152 0l-29.3-154.6c-93.4 49.1-170.7 71.7-170.7 71.7 84 15 50 83 50 83l-332 .9c-22-54 0-83.9 0-83.9s-69.9-19.9-80.4-95.2c-3.8-27.4.2-62.1 18.4-105.8 68-164 304-204 378-266.1s146-128 146-128 7-35 15-81.3c6.8-39.5 14.4-87.2 19-128.6 2.9-25.9 9.6-48.6 20-68"/><path class="dst1" d="M1185.4 515.8c-7.1-1.7-13.2-2.5-18-2-36 4 62-102 62-102s26.6-4 50.6 32.4c13.8 21 26.8 55.3 33.4 111.6 2.5 21.8-82-28.7-128-40zm-63.3 801.4l-17.6-211.4m148.8 128.1c4.4-35 8.6-69.4 11.1-92.1 7-64 19-93.1 19-93.1m30.1 132.9l18 172.2s70-6.2 82 68.9l-126.5 9.4m-344.6-43.2l-137-17s138-8.8 124-173.4M589 1293.7s-290.3-78.6-290.3-290.3c0 0 142.7 214.6 308.7 184.5m539-475.4s53.7 86.5 230.4 81.3"/></g></g></symbol><symbol viewBox="0 0 612 612" id="heart" xmlns="http://www.w3.org/2000/svg"><path d="M459 18.075c-63.743 0-111.977 37.409-153 76.5-39.091-41.482-89.256-76.5-153-76.5-89.773 0-153 77.188-153 161.358 0 45.154 18.494 77.686 38.747 108.228l237.781 285.077c26.699 28.248 31.729 28.248 58.427 0l238.316-285.077C597.082 257.119 612 224.587 612 179.433c0-84.169-63.228-161.358-153-161.358zm76.5 261.669L306 553.575 76.5 278.615c-27.444-38.154-38.25-63.896-38.25-99.182 0-65.752 46.952-124.944 114.75-125.499 55.769-.459 118.977 56.495 153 99.431 33.125-41.444 97.231-99.431 153-99.431 66 0 114.75 59.747 114.75 125.499 0 35.286-8.549 62.94-38.25 100.311z"/></symbol><symbol viewBox="0 0 460.298 460.297" id="home" xmlns="http://www.w3.org/2000/svg"><path d="M230.149 120.939L65.986 256.274c0 .191-.048.472-.144.855-.094.38-.144.656-.144.852v137.041c0 4.948 1.809 9.236 5.426 12.847 3.616 3.613 7.898 5.431 12.847 5.431h109.63V303.664h73.097v109.64h109.629c4.948 0 9.236-1.814 12.847-5.435 3.617-3.607 5.432-7.898 5.432-12.847V257.981c0-.76-.104-1.334-.288-1.707L230.149 120.939z"/><path d="M457.122 225.438L394.6 173.476V56.989c0-2.663-.856-4.853-2.574-6.567-1.704-1.712-3.894-2.568-6.563-2.568h-54.816c-2.666 0-4.855.856-6.57 2.568-1.711 1.714-2.566 3.905-2.566 6.567v55.673l-69.662-58.245c-6.084-4.949-13.318-7.423-21.694-7.423-8.375 0-15.608 2.474-21.698 7.423L3.172 225.438c-1.903 1.52-2.946 3.566-3.14 6.136-.193 2.568.472 4.811 1.997 6.713l17.701 21.128c1.525 1.712 3.521 2.759 5.996 3.142 2.285.192 4.57-.476 6.855-1.998L230.149 95.817l197.57 164.741c1.526 1.328 3.521 1.991 5.996 1.991h.858c2.471-.376 4.463-1.43 5.996-3.138l17.703-21.125c1.522-1.906 2.189-4.145 1.991-6.716-.195-2.563-1.242-4.609-3.141-6.132z"/></symbol><symbol viewBox="0 0 511.634 511.634" id="home--calendar" xmlns="http://www.w3.org/2000/svg"><path d="M482.513 83.942c-7.225-7.233-15.797-10.85-25.694-10.85h-36.541v-27.41c0-12.56-4.477-23.315-13.422-32.261C397.906 4.475 387.157 0 374.591 0h-18.268c-12.565 0-23.318 4.475-32.264 13.422-8.949 8.945-13.422 19.701-13.422 32.261v27.41h-109.63v-27.41c0-12.56-4.475-23.315-13.422-32.261C178.64 4.475 167.886 0 155.321 0H137.05c-12.562 0-23.317 4.475-32.264 13.422-8.945 8.945-13.421 19.701-13.421 32.261v27.41H54.823c-9.9 0-18.464 3.617-25.697 10.85-7.233 7.232-10.85 15.8-10.85 25.697v365.453c0 9.89 3.617 18.456 10.85 25.693 7.232 7.231 15.796 10.849 25.697 10.849h401.989c9.897 0 18.47-3.617 25.694-10.849 7.234-7.234 10.852-15.804 10.852-25.693V109.639c-.001-9.9-3.615-18.464-10.845-25.697zM137.047 475.088H54.823v-82.23h82.224v82.23zm0-100.498H54.823v-91.358h82.224v91.358zm0-109.639H54.823v-82.223h82.224v82.223zm-6.42-130.618c-1.809-1.809-2.712-3.946-2.712-6.423V45.686c0-2.474.903-4.617 2.712-6.423 1.809-1.809 3.946-2.712 6.423-2.712h18.271c2.474 0 4.617.903 6.423 2.712 1.809 1.807 2.714 3.949 2.714 6.423v82.224c0 2.478-.909 4.615-2.714 6.423-1.807 1.809-3.946 2.712-6.423 2.712H137.05c-2.474.001-4.614-.903-6.423-2.712zm116.056 340.755h-91.365v-82.23h91.365v82.23zm0-100.498h-91.365v-91.358h91.365v91.358zm0-109.639h-91.365v-82.223h91.365v82.223zm109.64 210.137h-91.364v-82.23h91.364v82.23zm0-100.498h-91.364v-91.358h91.364v91.358zm0-109.639h-91.364v-82.223h91.364v82.223zm-6.427-130.618c-1.807-1.809-2.707-3.946-2.707-6.423V45.686c0-2.474.9-4.617 2.707-6.423 1.808-1.809 3.949-2.712 6.427-2.712h18.268c2.478 0 4.617.903 6.427 2.712 1.808 1.807 2.707 3.949 2.707 6.423v82.224c0 2.478-.903 4.615-2.707 6.423-1.807 1.809-3.949 2.712-6.427 2.712h-18.268c-2.477.001-4.626-.903-6.427-2.712zm106.916 340.755h-82.228v-82.23h82.228v82.23zm0-100.498h-82.228v-91.358h82.228v91.358zm0-109.639h-82.228v-82.223h82.228v82.223z"/></symbol><symbol viewBox="0 0 16 16" id="home--cubes" xmlns="http://www.w3.org/2000/svg"><path d="M11 6.6V2.8L7 1 3 2.8V7L0 8.3v4.4l4 1.8L7.5 13l3.5 1.6 4-1.8V8.3l-4-1.7zM7 2.1l2.8 1.2-2.7 1.1-2.6-1.2L7 2.1zM7 5v2.9L4 6.6v-3L7 5zm-3 8.5l-3-1.3v-3l3 1.4v2.9zM4 10L1.4 8.8 4 7.7l2.8 1.2L4 10zm7 3.5l-3-1.3v-3l3 1.4v2.9zm0-3.5L8.4 8.8 11 7.7l2.8 1.2L11 10z"/></symbol><symbol viewBox="0 0 1920 1920" id="home--dog2" xmlns="http://www.w3.org/2000/svg"><style>.ist1{fill:none;stroke:#231f20;stroke-width:50;stroke-linecap:round;stroke-linejoin:round;stroke-miterlimit:10}</style><path d="M607.4 1187.8c-18.1 43.7-22.2 78.4-18.4 105.8 0 0-290.3-78.6-290.3-290.3.1.1 142.8 214.7 308.7 184.5zM1280 444.3c-24-36.4-50.6-32.4-50.6-32.4s-98 106-62 102c4.8-.5 11 .3 18 2 46 11.2 130.5 61.8 128 40-6.6-56.3-19.6-90.7-33.4-111.6zm-114.6 139.5c-4.6 41.4-12.2 89.1-19 128.6 0 0 53.7 86.5 230.4 81.3-5.9-29.4-.7-58.9 30.6-92.8 0 0 86-21.3 140-23.3s38-73.8 38-73.8 56-58 28-94h-154s-24-80-126-74c-19.5 1.1-37.3 4-53.4 8.4 13.8 21 26.8 55.3 33.4 111.6 2.5 21.8-82-28.8-128-40-10.4 19.4-17.1 42.2-20 68zm166 770l-18-172.2c-19.1 18.8-39.4 36.2-60.2 52.3-8.1 63.9-16.8 129.9-16.8 129.9s30.6 34.9 50.4 68.3l126.5-9.4c-11.9-75.1-81.9-68.9-81.9-68.9zm-180 118c92 82 152 0 152 0-1.2-10.9-7.8-25.2-16.5-39.7-19.9-33.4-50.4-68.3-50.4-68.3s8.8-66 16.8-129.9c20.8-16.1 41.1-33.5 60.2-52.3 26.9-26.5 51.5-55.7 72-87.8 95.1-148.9 6.5-224.3-8.6-300-176.7 5.1-230.4-81.3-230.4-81.3-8 46.4-15 81.3-15 81.3s-72 65.9-146 128-310 102.1-378 266.1c-18.1 43.7-22.2 78.4-18.4 105.8 10.5 75.3 80.4 95.2 80.4 95.2s-22 29.9 0 83.9l332-.9s34-67.9-50-83c0 0 77.3-22.6 170.7-71.7l29.2 154.6z" id="iLayer_6"/><g id="iSTROKES"><g id="iXMLID_1_"><path class="ist1" d="M1280 444.3c16.1-4.4 33.9-7.3 53.4-8.4 102-6 126 74 126 74h154c28 36-28 94-28 94s16 71.8-38 73.8-140 23.3-140 23.3c-31.3 33.9-36.5 63.4-30.6 92.8 15.2 75.8 103.7 151.2 8.6 300-20.5 32.1-45.1 61.3-72 87.8-19.1 18.8-39.4 36.2-60.2 52.3-8.1 63.9-16.8 129.9-16.8 129.9s30.6 34.9 50.4 68.3c8.7 14.5 15.3 28.8 16.5 39.7 0 0-60 82-152 0l-29.3-154.6c-93.4 49.1-170.7 71.7-170.7 71.7 84 15 50 83 50 83l-332 .9c-22-54 0-83.9 0-83.9s-69.9-19.9-80.4-95.2c-3.8-27.4.2-62.1 18.4-105.8 68-164 304-204 378-266.1s146-128 146-128 7-35 15-81.3c6.8-39.5 14.4-87.2 19-128.6 2.9-25.9 9.6-48.6 20-68"/><path class="ist1" d="M1185.4 515.8c-7.1-1.7-13.2-2.5-18-2-36 4 62-102 62-102s26.6-4 50.6 32.4c13.8 21 26.8 55.3 33.4 111.6 2.5 21.8-82-28.7-128-40zm-63.3 801.4l-17.6-211.4m148.8 128.1c4.4-35 8.6-69.4 11.1-92.1 7-64 19-93.1 19-93.1m30.1 132.9l18 172.2s70-6.2 82 68.9l-126.5 9.4m-344.6-43.2l-137-17s138-8.8 124-173.4M589 1293.7s-290.3-78.6-290.3-290.3c0 0 142.7 214.6 308.7 184.5m539-475.4s53.7 86.5 230.4 81.3"/></g></g></symbol><symbol viewBox="0 0 612 612" id="home--heart" xmlns="http://www.w3.org/2000/svg"><path d="M459 18.075c-63.743 0-111.977 37.409-153 76.5-39.091-41.482-89.256-76.5-153-76.5-89.773 0-153 77.188-153 161.358 0 45.154 18.494 77.686 38.747 108.228l237.781 285.077c26.699 28.248 31.729 28.248 58.427 0l238.316-285.077C597.082 257.119 612 224.587 612 179.433c0-84.169-63.228-161.358-153-161.358zm76.5 261.669L306 553.575 76.5 278.615c-27.444-38.154-38.25-63.896-38.25-99.182 0-65.752 46.952-124.944 114.75-125.499 55.769-.459 118.977 56.495 153 99.431 33.125-41.444 97.231-99.431 153-99.431 66 0 114.75 59.747 114.75 125.499 0 35.286-8.549 62.94-38.25 100.311z"/></symbol><symbol viewBox="0 0 1920 1920" id="home--home" xmlns="http://www.w3.org/2000/svg"><style>.kst1{fill:none;stroke:#231f20;stroke-width:50;stroke-linecap:round;stroke-linejoin:round;stroke-miterlimit:10}</style><path d="M607.4 1187.8c-18.1 43.7-22.2 78.4-18.4 105.8 0 0-290.3-78.6-290.3-290.3.1.1 142.8 214.7 308.7 184.5zM1280 444.3c-24-36.4-50.6-32.4-50.6-32.4s-98 106-62 102c4.8-.5 11 .3 18 2 46 11.2 130.5 61.8 128 40-6.6-56.3-19.6-90.7-33.4-111.6zm-114.6 139.5c-4.6 41.4-12.2 89.1-19 128.6 0 0 53.7 86.5 230.4 81.3-5.9-29.4-.7-58.9 30.6-92.8 0 0 86-21.3 140-23.3s38-73.8 38-73.8 56-58 28-94h-154s-24-80-126-74c-19.5 1.1-37.3 4-53.4 8.4 13.8 21 26.8 55.3 33.4 111.6 2.5 21.8-82-28.8-128-40-10.4 19.4-17.1 42.2-20 68zm166 770l-18-172.2c-19.1 18.8-39.4 36.2-60.2 52.3-8.1 63.9-16.8 129.9-16.8 129.9s30.6 34.9 50.4 68.3l126.5-9.4c-11.9-75.1-81.9-68.9-81.9-68.9zm-180 118c92 82 152 0 152 0-1.2-10.9-7.8-25.2-16.5-39.7-19.9-33.4-50.4-68.3-50.4-68.3s8.8-66 16.8-129.9c20.8-16.1 41.1-33.5 60.2-52.3 26.9-26.5 51.5-55.7 72-87.8 95.1-148.9 6.5-224.3-8.6-300-176.7 5.1-230.4-81.3-230.4-81.3-8 46.4-15 81.3-15 81.3s-72 65.9-146 128-310 102.1-378 266.1c-18.1 43.7-22.2 78.4-18.4 105.8 10.5 75.3 80.4 95.2 80.4 95.2s-22 29.9 0 83.9l332-.9s34-67.9-50-83c0 0 77.3-22.6 170.7-71.7l29.2 154.6z" id="kLayer_6"/><g id="kSTROKES"><g id="kXMLID_1_"><path class="kst1" d="M1280 444.3c16.1-4.4 33.9-7.3 53.4-8.4 102-6 126 74 126 74h154c28 36-28 94-28 94s16 71.8-38 73.8-140 23.3-140 23.3c-31.3 33.9-36.5 63.4-30.6 92.8 15.2 75.8 103.7 151.2 8.6 300-20.5 32.1-45.1 61.3-72 87.8-19.1 18.8-39.4 36.2-60.2 52.3-8.1 63.9-16.8 129.9-16.8 129.9s30.6 34.9 50.4 68.3c8.7 14.5 15.3 28.8 16.5 39.7 0 0-60 82-152 0l-29.3-154.6c-93.4 49.1-170.7 71.7-170.7 71.7 84 15 50 83 50 83l-332 .9c-22-54 0-83.9 0-83.9s-69.9-19.9-80.4-95.2c-3.8-27.4.2-62.1 18.4-105.8 68-164 304-204 378-266.1s146-128 146-128 7-35 15-81.3c6.8-39.5 14.4-87.2 19-128.6 2.9-25.9 9.6-48.6 20-68"/><path class="kst1" d="M1185.4 515.8c-7.1-1.7-13.2-2.5-18-2-36 4 62-102 62-102s26.6-4 50.6 32.4c13.8 21 26.8 55.3 33.4 111.6 2.5 21.8-82-28.7-128-40zm-63.3 801.4l-17.6-211.4m148.8 128.1c4.4-35 8.6-69.4 11.1-92.1 7-64 19-93.1 19-93.1m30.1 132.9l18 172.2s70-6.2 82 68.9l-126.5 9.4m-344.6-43.2l-137-17s138-8.8 124-173.4M589 1293.7s-290.3-78.6-290.3-290.3c0 0 142.7 214.6 308.7 184.5m539-475.4s53.7 86.5 230.4 81.3"/></g></g></symbol><symbol viewBox="0 0 460.298 460.297" id="home--home_org" xmlns="http://www.w3.org/2000/svg"><path d="M230.149 120.939L65.986 256.274c0 .191-.048.472-.144.855-.094.38-.144.656-.144.852v137.041c0 4.948 1.809 9.236 5.426 12.847 3.616 3.613 7.898 5.431 12.847 5.431h109.63V303.664h73.097v109.64h109.629c4.948 0 9.236-1.814 12.847-5.435 3.617-3.607 5.432-7.898 5.432-12.847V257.981c0-.76-.104-1.334-.288-1.707L230.149 120.939z"/><path d="M457.122 225.438L394.6 173.476V56.989c0-2.663-.856-4.853-2.574-6.567-1.704-1.712-3.894-2.568-6.563-2.568h-54.816c-2.666 0-4.855.856-6.57 2.568-1.711 1.714-2.566 3.905-2.566 6.567v55.673l-69.662-58.245c-6.084-4.949-13.318-7.423-21.694-7.423-8.375 0-15.608 2.474-21.698 7.423L3.172 225.438c-1.903 1.52-2.946 3.566-3.14 6.136-.193 2.568.472 4.811 1.997 6.713l17.701 21.128c1.525 1.712 3.521 2.759 5.996 3.142 2.285.192 4.57-.476 6.855-1.998L230.149 95.817l197.57 164.741c1.526 1.328 3.521 1.991 5.996 1.991h.858c2.471-.376 4.463-1.43 5.996-3.138l17.703-21.125c1.522-1.906 2.189-4.145 1.991-6.716-.195-2.563-1.242-4.609-3.141-6.132z"/></symbol><symbol viewBox="0 0 29 40" id="home--leaf" xmlns="http://www.w3.org/2000/svg"><path d="M24.214.398s-3.253 3.129-6.77 4.391C-8.602 14.133 2.383 32.341 2.741 32.401c0 0 1.461-2.522 3.434-3.961C18.694 19.312 21.239 8.804 21.239 8.804S18.43 21.448 7.291 29.315c-2.46 1.737-4.125 6.013-4.83 10.286 0 0 1.743-.698 2.493-.887.293-1.893.904-3.705 1.938-5.324 15.567 1.838 20.665-10.602 21.331-14.941C29.794 8.204 24.214.398 24.214.398z"/></symbol><symbol viewBox="0 0 15 14" id="home--link" xmlns="http://www.w3.org/2000/svg"><path d="M12.967 6.202l-2.571 2.57a3.634 3.634 0 01-5.139 0 3.67 3.67 0 01-.552-.733L5.9 6.844c.056-.056.127-.089.194-.128.082.282.226.55.448.771a1.82 1.82 0 002.57 0l2.569-2.569a1.819 1.819 0 000-2.57 1.82 1.82 0 00-2.569 0l-.914.915A4.557 4.557 0 005.88 3.01l1.947-1.947a3.635 3.635 0 015.14 5.139zm-6.795 4.226l-.915.914a1.82 1.82 0 01-2.57 0 1.82 1.82 0 010-2.57l2.57-2.57a1.82 1.82 0 012.57 0c.221.222.365.489.449.77.067-.038.136-.071.193-.128l1.194-1.193a3.563 3.563 0 00-.551-.733 3.633 3.633 0 00-5.14 0L1.403 7.487a3.635 3.635 0 005.139 5.14L8.49 10.68a4.563 4.563 0 01-2.318-.252z"/></symbol><symbol viewBox="0 0 15 15" id="home--search" xmlns="http://www.w3.org/2000/svg"><path d="M13.977 12.501l-2.794-2.794a5.583 5.583 0 001.01-3.251c0-.777-.151-1.519-.452-2.228a5.742 5.742 0 00-1.222-1.833 5.75 5.75 0 00-1.833-1.223A5.647 5.647 0 006.457.72c-.777 0-1.519.151-2.228.452a5.729 5.729 0 00-1.833 1.223 5.729 5.729 0 00-1.223 1.833 5.642 5.642 0 00-.452 2.228c0 .777.151 1.52.452 2.229a5.75 5.75 0 001.223 1.833c.513.513 1.124.92 1.833 1.222a5.624 5.624 0 002.228.452 5.575 5.575 0 003.251-1.01l2.794 2.786a.97.97 0 00.734.309c.282 0 .527-.103.733-.309.206-.206.309-.451.309-.733a.995.995 0 00-.301-.734zM9.036 9.035c-.715.714-1.574 1.071-2.579 1.071-1.005 0-1.864-.357-2.578-1.071-.715-.715-1.072-1.574-1.072-2.579 0-1.005.357-1.864 1.072-2.578.714-.715 1.573-1.072 2.578-1.072s1.864.357 2.579 1.072c.714.714 1.071 1.573 1.071 2.578S9.75 8.32 9.036 9.035z"/></symbol><symbol viewBox="0 0 0 0" id="home--symbol--sprite" xmlns="http://www.w3.org/2000/svg"><symbol viewBox="0 0 511.634 511.634" id="pcalendar" xmlns="http://www.w3.org/2000/svg"><path d="M482.513 83.942c-7.225-7.233-15.797-10.85-25.694-10.85h-36.541v-27.41c0-12.56-4.477-23.315-13.422-32.261C397.906 4.475 387.157 0 374.591 0h-18.268c-12.565 0-23.318 4.475-32.264 13.422-8.949 8.945-13.422 19.701-13.422 32.261v27.41h-109.63v-27.41c0-12.56-4.475-23.315-13.422-32.261C178.64 4.475 167.886 0 155.321 0H137.05c-12.562 0-23.317 4.475-32.264 13.422-8.945 8.945-13.421 19.701-13.421 32.261v27.41H54.823c-9.9 0-18.464 3.617-25.697 10.85-7.233 7.232-10.85 15.8-10.85 25.697v365.453c0 9.89 3.617 18.456 10.85 25.693 7.232 7.231 15.796 10.849 25.697 10.849h401.989c9.897 0 18.47-3.617 25.694-10.849 7.234-7.234 10.852-15.804 10.852-25.693V109.639c-.001-9.9-3.615-18.464-10.845-25.697zM137.047 475.088H54.823v-82.23h82.224v82.23zm0-100.498H54.823v-91.358h82.224v91.358zm0-109.639H54.823v-82.223h82.224v82.223zm-6.42-130.618c-1.809-1.809-2.712-3.946-2.712-6.423V45.686c0-2.474.903-4.617 2.712-6.423 1.809-1.809 3.946-2.712 6.423-2.712h18.271c2.474 0 4.617.903 6.423 2.712 1.809 1.807 2.714 3.949 2.714 6.423v82.224c0 2.478-.909 4.615-2.714 6.423-1.807 1.809-3.946 2.712-6.423 2.712H137.05c-2.474.001-4.614-.903-6.423-2.712zm116.056 340.755h-91.365v-82.23h91.365v82.23zm0-100.498h-91.365v-91.358h91.365v91.358zm0-109.639h-91.365v-82.223h91.365v82.223zm109.64 210.137h-91.364v-82.23h91.364v82.23zm0-100.498h-91.364v-91.358h91.364v91.358zm0-109.639h-91.364v-82.223h91.364v82.223zm-6.427-130.618c-1.807-1.809-2.707-3.946-2.707-6.423V45.686c0-2.474.9-4.617 2.707-6.423 1.808-1.809 3.949-2.712 6.427-2.712h18.268c2.478 0 4.617.903 6.427 2.712 1.808 1.807 2.707 3.949 2.707 6.423v82.224c0 2.478-.903 4.615-2.707 6.423-1.807 1.809-3.949 2.712-6.427 2.712h-18.268c-2.477.001-4.626-.903-6.427-2.712zm106.916 340.755h-82.228v-82.23h82.228v82.23zm0-100.498h-82.228v-91.358h82.228v91.358zm0-109.639h-82.228v-82.223h82.228v82.223z"/></symbol><symbol viewBox="0 0 81.751 81.751" id="pconsultation" xmlns="http://www.w3.org/2000/svg"><path d="M42.915 47.213c13.017 0 23.608-10.587 23.608-23.605C66.523 10.588 55.932 0 42.915 0c-13.019 0-23.61 10.588-23.61 23.608 0 13.018 10.591 23.605 23.61 23.605zM25.044 16.33c5.312-.479 27.158-4.866 28.155-7.842.769 5.4 4.817 13.048 8.936 16.823-.867 9.847-9.147 17.603-19.222 17.603-10.649 0-19.308-8.664-19.308-19.308a19.222 19.222 0 011.439-7.276zm50.692 44.949v20.473H10.091V61.279c0-3.399.934-6.57 2.541-9.305 2.742 3.195 6.557 4.979 10.434 4.715 2.144-.146 4.13-.929 5.707-2.222.208-.144.593-.401.899-.78.757-.871 1.241-1.82 1.673-2.65.179-.35.362-.703.572-1.05.26-.429.547-1.145.474-2.096a26.357 26.357 0 0010.525 2.192c6.849 0 13.076-2.633 17.78-6.917 8.558 1.595 15.04 9.091 15.04 18.113zM13.59 48.475a119.91 119.91 0 01-3.558-6.28h-.01c-.027-.055-.049-.114-.076-.171-.031-.055-.064-.111-.094-.169l.007-.007a115.788 115.788 0 01-2.938-6.597c-2.378-5.832.149-11.784 4.959-12.99.208-.064.411-.157.618-.178 1.273-.096 2.563.283 3.838.395 1.628.147 2.287 8.086.198 8.073-.771-.009-3.087-.404-3.821-.156-.646.219-.717 1.258-.403 2.031.827 2.035 2.231 4.459 3.29 6.531l.004-.007c.029.059.054.117.082.18.032.054.063.116.089.169l-.002.004c1.035 2.076 2.153 4.649 3.297 6.529.435.704 1.312 1.271 1.876.878.631-.44 1.689-2.53 2.14-3.164 1.226-1.684 7.222 3.559 6.375 4.959-.666 1.091-1.124 2.341-1.962 3.308-.138.174-.338.27-.507.401-3.831 3.15-10.118 1.647-13.402-3.739z"/></symbol><symbol viewBox="0 0 16 16" id="pcubes" xmlns="http://www.w3.org/2000/svg"><path d="M11 6.6V2.8L7 1 3 2.8V7L0 8.3v4.4l4 1.8L7.5 13l3.5 1.6 4-1.8V8.3l-4-1.7zM7 2.1l2.8 1.2-2.7 1.1-2.6-1.2L7 2.1zM7 5v2.9L4 6.6v-3L7 5zm-3 8.5l-3-1.3v-3l3 1.4v2.9zM4 10L1.4 8.8 4 7.7l2.8 1.2L4 10zm7 3.5l-3-1.3v-3l3 1.4v2.9zm0-3.5L8.4 8.8 11 7.7l2.8 1.2L11 10z"/></symbol><symbol viewBox="0 0 1920 1920" id="pdog" xmlns="http://www.w3.org/2000/svg"><style>.pdst1{fill:none;stroke:#231f20;stroke-width:50;stroke-linecap:round;stroke-linejoin:round;stroke-miterlimit:10}</style><path d="M607.4 1187.8c-18.1 43.7-22.2 78.4-18.4 105.8 0 0-290.3-78.6-290.3-290.3.1.1 142.8 214.7 308.7 184.5zM1280 444.3c-24-36.4-50.6-32.4-50.6-32.4s-98 106-62 102c4.8-.5 11 .3 18 2 46 11.2 130.5 61.8 128 40-6.6-56.3-19.6-90.7-33.4-111.6zm-114.6 139.5c-4.6 41.4-12.2 89.1-19 128.6 0 0 53.7 86.5 230.4 81.3-5.9-29.4-.7-58.9 30.6-92.8 0 0 86-21.3 140-23.3s38-73.8 38-73.8 56-58 28-94h-154s-24-80-126-74c-19.5 1.1-37.3 4-53.4 8.4 13.8 21 26.8 55.3 33.4 111.6 2.5 21.8-82-28.8-128-40-10.4 19.4-17.1 42.2-20 68zm166 770l-18-172.2c-19.1 18.8-39.4 36.2-60.2 52.3-8.1 63.9-16.8 129.9-16.8 129.9s30.6 34.9 50.4 68.3l126.5-9.4c-11.9-75.1-81.9-68.9-81.9-68.9zm-180 118c92 82 152 0 152 0-1.2-10.9-7.8-25.2-16.5-39.7-19.9-33.4-50.4-68.3-50.4-68.3s8.8-66 16.8-129.9c20.8-16.1 41.1-33.5 60.2-52.3 26.9-26.5 51.5-55.7 72-87.8 95.1-148.9 6.5-224.3-8.6-300-176.7 5.1-230.4-81.3-230.4-81.3-8 46.4-15 81.3-15 81.3s-72 65.9-146 128-310 102.1-378 266.1c-18.1 43.7-22.2 78.4-18.4 105.8 10.5 75.3 80.4 95.2 80.4 95.2s-22 29.9 0 83.9l332-.9s34-67.9-50-83c0 0 77.3-22.6 170.7-71.7l29.2 154.6z" id="pdLayer_6"/><g id="pdSTROKES"><g id="pdXMLID_1_"><path class="pdst1" d="M1280 444.3c16.1-4.4 33.9-7.3 53.4-8.4 102-6 126 74 126 74h154c28 36-28 94-28 94s16 71.8-38 73.8-140 23.3-140 23.3c-31.3 33.9-36.5 63.4-30.6 92.8 15.2 75.8 103.7 151.2 8.6 300-20.5 32.1-45.1 61.3-72 87.8-19.1 18.8-39.4 36.2-60.2 52.3-8.1 63.9-16.8 129.9-16.8 129.9s30.6 34.9 50.4 68.3c8.7 14.5 15.3 28.8 16.5 39.7 0 0-60 82-152 0l-29.3-154.6c-93.4 49.1-170.7 71.7-170.7 71.7 84 15 50 83 50 83l-332 .9c-22-54 0-83.9 0-83.9s-69.9-19.9-80.4-95.2c-3.8-27.4.2-62.1 18.4-105.8 68-164 304-204 378-266.1s146-128 146-128 7-35 15-81.3c6.8-39.5 14.4-87.2 19-128.6 2.9-25.9 9.6-48.6 20-68"/><path class="pdst1" d="M1185.4 515.8c-7.1-1.7-13.2-2.5-18-2-36 4 62-102 62-102s26.6-4 50.6 32.4c13.8 21 26.8 55.3 33.4 111.6 2.5 21.8-82-28.7-128-40zm-63.3 801.4l-17.6-211.4m148.8 128.1c4.4-35 8.6-69.4 11.1-92.1 7-64 19-93.1 19-93.1m30.1 132.9l18 172.2s70-6.2 82 68.9l-126.5 9.4m-344.6-43.2l-137-17s138-8.8 124-173.4M589 1293.7s-290.3-78.6-290.3-290.3c0 0 142.7 214.6 308.7 184.5m539-475.4s53.7 86.5 230.4 81.3"/></g></g></symbol><symbol viewBox="0 0 612 612" id="pheart" xmlns="http://www.w3.org/2000/svg"><path d="M459 18.075c-63.743 0-111.977 37.409-153 76.5-39.091-41.482-89.256-76.5-153-76.5-89.773 0-153 77.188-153 161.358 0 45.154 18.494 77.686 38.747 108.228l237.781 285.077c26.699 28.248 31.729 28.248 58.427 0l238.316-285.077C597.082 257.119 612 224.587 612 179.433c0-84.169-63.228-161.358-153-161.358zm76.5 261.669L306 553.575 76.5 278.615c-27.444-38.154-38.25-63.896-38.25-99.182 0-65.752 46.952-124.944 114.75-125.499 55.769-.459 118.977 56.495 153 99.431 33.125-41.444 97.231-99.431 153-99.431 66 0 114.75 59.747 114.75 125.499 0 35.286-8.549 62.94-38.25 100.311z"/></symbol><symbol viewBox="0 0 460.298 460.297" id="phome" xmlns="http://www.w3.org/2000/svg"><path d="M230.149 120.939L65.986 256.274c0 .191-.048.472-.144.855-.094.38-.144.656-.144.852v137.041c0 4.948 1.809 9.236 5.426 12.847 3.616 3.613 7.898 5.431 12.847 5.431h109.63V303.664h73.097v109.64h109.629c4.948 0 9.236-1.814 12.847-5.435 3.617-3.607 5.432-7.898 5.432-12.847V257.981c0-.76-.104-1.334-.288-1.707L230.149 120.939z"/><path d="M457.122 225.438L394.6 173.476V56.989c0-2.663-.856-4.853-2.574-6.567-1.704-1.712-3.894-2.568-6.563-2.568h-54.816c-2.666 0-4.855.856-6.57 2.568-1.711 1.714-2.566 3.905-2.566 6.567v55.673l-69.662-58.245c-6.084-4.949-13.318-7.423-21.694-7.423-8.375 0-15.608 2.474-21.698 7.423L3.172 225.438c-1.903 1.52-2.946 3.566-3.14 6.136-.193 2.568.472 4.811 1.997 6.713l17.701 21.128c1.525 1.712 3.521 2.759 5.996 3.142 2.285.192 4.57-.476 6.855-1.998L230.149 95.817l197.57 164.741c1.526 1.328 3.521 1.991 5.996 1.991h.858c2.471-.376 4.463-1.43 5.996-3.138l17.703-21.125c1.522-1.906 2.189-4.145 1.991-6.716-.195-2.563-1.242-4.609-3.141-6.132z"/></symbol><symbol viewBox="0 0 48 48" id="picons8-viber" xmlns="http://www.w3.org/2000/svg"><path d="M24 5C21.361 5 13.33 5 8.89 9.054 6.246 11.688 5 15.494 5 21v3c0 5.506 1.246 9.312 3.921 11.976 1.332 1.215 3.148 2.186 5.368 2.857l.711.214v5.328c0 .625.181.625.241.625.123 0 .32-.039.694-.371.09-.089.75-.803 3.96-4.399l.324-.363.485.031c1.075.067 2.184.102 3.296.102 2.639 0 10.67 0 15.11-4.055C41.753 33.311 43 29.505 43 24v-3c0-5.506-1.246-9.312-3.921-11.976C34.67 5 26.639 5 24 5z"/><path d="M33.451 28.854c-1.111-.936-1.624-1.219-3.158-2.14-.639-.383-1.613-.714-2.124-.714-.349 0-.767.267-1.023.523-.656.656-.871 1.477-2.021 1.477-1.125 0-3.09-1.145-4.5-2.625C19.145 23.965 18 22 18 20.875c0-1.15.806-1.38 1.462-2.037.256-.255.538-.673.538-1.022 0-.511-.331-1.47-.714-2.109-.921-1.535-1.203-2.048-2.14-3.158-.317-.376-.678-.548-1.056-.549-.639-.001-1.478.316-2.046.739-.854.637-1.747 1.504-1.986 2.584a2.57 2.57 0 00-.057.443c-.046 1.125.396 2.267.873 3.234 1.123 2.279 2.609 4.485 4.226 6.455.517.63 1.08 1.216 1.663 1.782a21.91 21.91 0 001.782 1.663c1.97 1.617 4.176 3.103 6.455 4.226.958.472 2.086.906 3.2.874a2.59 2.59 0 00.477-.058c1.08-.238 1.947-1.132 2.584-1.986.423-.568.74-1.406.739-2.046-.001-.378-.173-.739-.549-1.056zM34 24a1 1 0 01-1-1v-1c0-4.962-4.038-9-9-9a1 1 0 010-2c6.065 0 11 4.935 11 11v1a1 1 0 01-1 1zm-6.142-2a1 1 0 01-.967-.748 2.988 2.988 0 00-2.141-2.142 1 1 0 01.501-1.937 4.994 4.994 0 013.575 3.574A1 1 0 0127.858 22z"/><path d="M31 23a1 1 0 01-1-1 5.993 5.993 0 00-5.678-5.986 1 1 0 11.105-1.997A7.993 7.993 0 0132 22a1 1 0 01-1 1z"/><path d="M24 4c-4.5 0-11.512.414-15.784 4.316C5.196 11.323 4 15.541 4 21c0 .452-.002.956.002 1.5-.004.543-.002 1.047-.002 1.499 0 5.459 1.196 9.677 4.216 12.684 1.626 1.485 3.654 2.462 5.784 3.106v4.586C14 45.971 15.049 46 15.241 46h.009c.494-.002.921-.244 1.349-.624.161-.143 2.02-2.215 4.042-4.481 1.204.077 2.348.105 3.358.105 4.5 0 11.511-.415 15.784-4.317 3.019-3.006 4.216-7.225 4.216-12.684 0-.452.002-.956-.002-1.5.004-.544.002-1.047.002-1.5 0-5.459-1.196-9.677-4.216-12.684C35.511 4.414 28.5 4 24 4zm17 19.651v.348c0 4.906-1.045 8.249-3.286 10.512C33.832 38 26.437 38 23.999 38c-.742 0-1.946-.001-3.367-.1-.395.444-4.632 5.183-4.632 5.183V37.22c-2.104-.505-4.183-1.333-5.714-2.708C8.045 32.248 7 28.905 7 23.999v-.348c0-.351-.001-.73.002-1.173-.003-.4-.003-.778-.002-1.13V21c0-4.906 1.045-8.249 3.286-10.512C14.167 6.999 21.563 6.999 24 6.999c2.437 0 9.832 0 13.713 3.489 2.242 2.263 3.286 5.606 3.286 10.512v.348c0 .351.001.73-.002 1.173.003.401.003.779.003 1.13z"/></symbol><symbol viewBox="0 0 29 40" id="pleaf" xmlns="http://www.w3.org/2000/svg"><path d="M24.214.398s-3.253 3.129-6.77 4.391C-8.602 14.133 2.383 32.341 2.741 32.401c0 0 1.461-2.522 3.434-3.961C18.694 19.312 21.239 8.804 21.239 8.804S18.43 21.448 7.291 29.315c-2.46 1.737-4.125 6.013-4.83 10.286 0 0 1.743-.698 2.493-.887.293-1.893.904-3.705 1.938-5.324 15.567 1.838 20.665-10.602 21.331-14.941C29.794 8.204 24.214.398 24.214.398z"/></symbol><symbol viewBox="0 0 15 14" id="plink" xmlns="http://www.w3.org/2000/svg"><path d="M12.967 6.202l-2.571 2.57a3.634 3.634 0 01-5.139 0 3.67 3.67 0 01-.552-.733L5.9 6.844c.056-.056.127-.089.194-.128.082.282.226.55.448.771a1.82 1.82 0 002.57 0l2.569-2.569a1.819 1.819 0 000-2.57 1.82 1.82 0 00-2.569 0l-.914.915A4.557 4.557 0 005.88 3.01l1.947-1.947a3.635 3.635 0 015.14 5.139zm-6.795 4.226l-.915.914a1.82 1.82 0 01-2.57 0 1.82 1.82 0 010-2.57l2.57-2.57a1.82 1.82 0 012.57 0c.221.222.365.489.449.77.067-.038.136-.071.193-.128l1.194-1.193a3.563 3.563 0 00-.551-.733 3.633 3.633 0 00-5.14 0L1.403 7.487a3.635 3.635 0 005.139 5.14L8.49 10.68a4.563 4.563 0 01-2.318-.252z"/></symbol><symbol viewBox="0 0 488.1 488.1" id="pprice" xmlns="http://www.w3.org/2000/svg"><path d="M360.8 174.6l-98.1-85.9c-5.2-4.5-11.8-7-18.7-7-6.9 0-13.5 2.5-18.7 7l-34.8 30.5c-2-7.4-3.1-15.2-3.1-23.3 0-19.6 6.2-38 17.4-51.7C215.4 31.2 229.4 24 244 24c31.2 0 56.6 32.2 56.6 71.9 0 6.6 5.4 12 12 12s12-5.4 12-12C324.6 43 288.4 0 244 0c-22 0-42.5 10.3-57.8 29-14.7 18-22.8 41.7-22.8 66.9 0 14.2 2.6 27.9 7.5 40.5l-43.6 38.2c-10.9 9.6-17.2 23.4-17.2 37.9v215.4c0 33.2 27 60.2 60.2 60.2h147.5c33.2 0 60.2-27 60.2-60.2V212.5c0-14.5-6.3-28.3-17.2-37.9zM354 427.9c0 20-16.2 36.2-36.2 36.2H170.2c-20 0-36.2-16.2-36.2-36.2V212.5c0-7.6 3.3-14.9 9-19.9l39.5-34.6 3.6 4.8c15.3 18.7 35.8 29 57.8 29 6.6 0 12-5.4 12-12s-5.4-12-12-12c-14.7 0-28.6-7.2-39.2-20.2-1.4-1.8-2.8-3.6-4.1-5.5l40.4-35.4c1-.9 2.1-1.1 2.9-1.1s1.9.2 2.9 1.1l98.1 85.9c5.7 5 9 12.3 9 19.9v215.4h.1z"/><path d="M257.2 303.5h-26.4c-9.3 0-16.9-7.6-16.9-16.9s7.6-16.9 16.9-16.9h46.5c6.6 0 12-5.4 12-12s-5.4-12-12-12H256v-15.6c0-6.6-5.4-12-12-12s-12 5.4-12 12v15.6h-1.2c-22.6 0-40.9 18.4-40.9 40.9 0 22.6 18.4 40.9 40.9 40.9h26.4c9.3 0 16.9 7.6 16.9 16.9s-7.6 16.9-16.9 16.9h-47.4c-6.6 0-12 5.4-12 12s5.4 12 12 12H232v15.9c0 6.6 5.4 12 12 12s12-5.4 12-12v-15.9h1.7c22.3-.3 40.4-18.5 40.4-40.9 0-22.6-18.4-40.9-40.9-40.9z"/></symbol><symbol viewBox="0 0 15 15" id="psearch" xmlns="http://www.w3.org/2000/svg"><path d="M13.977 12.501l-2.794-2.794a5.583 5.583 0 001.01-3.251c0-.777-.151-1.519-.452-2.228a5.742 5.742 0 00-1.222-1.833 5.75 5.75 0 00-1.833-1.223A5.647 5.647 0 006.457.72c-.777 0-1.519.151-2.228.452a5.729 5.729 0 00-1.833 1.223 5.729 5.729 0 00-1.223 1.833 5.642 5.642 0 00-.452 2.228c0 .777.151 1.52.452 2.229a5.75 5.75 0 001.223 1.833c.513.513 1.124.92 1.833 1.222a5.624 5.624 0 002.228.452 5.575 5.575 0 003.251-1.01l2.794 2.786a.97.97 0 00.734.309c.282 0 .527-.103.733-.309.206-.206.309-.451.309-.733a.995.995 0 00-.301-.734zM9.036 9.035c-.715.714-1.574 1.071-2.579 1.071-1.005 0-1.864-.357-2.578-1.071-.715-.715-1.072-1.574-1.072-2.579 0-1.005.357-1.864 1.072-2.578.714-.715 1.573-1.072 2.578-1.072s1.864.357 2.579 1.072c.714.714 1.071 1.573 1.071 2.578S9.75 8.32 9.036 9.035z"/></symbol><symbol viewBox="-23 -21 682 682.667" id="pwhatsapp" xmlns="http://www.w3.org/2000/svg"><path d="M544.387 93.008C484.512 33.063 404.883.035 320.05 0 145.246 0 2.98 142.262 2.91 317.113c-.024 55.895 14.577 110.457 42.331 158.551L.25 640l168.121-44.102c46.324 25.27 98.477 38.586 151.55 38.602h.134c174.785 0 317.066-142.273 317.132-317.133.036-84.742-32.921-164.418-92.8-224.36zM320.05 580.94h-.11c-47.296-.02-93.683-12.73-134.16-36.742l-9.62-5.715-99.766 26.172 26.628-97.27-6.27-9.972c-26.386-41.969-40.32-90.476-40.296-140.281.055-145.332 118.305-263.57 263.7-263.57 70.406.023 136.59 27.476 186.355 77.3s77.156 116.051 77.133 186.485C583.582 462.69 465.34 580.94 320.05 580.94zm144.586-197.418c-7.922-3.968-46.883-23.132-54.149-25.78-7.258-2.645-12.547-3.962-17.824 3.968-5.285 7.93-20.469 25.781-25.094 31.066-4.625 5.29-9.242 5.953-17.168 1.985-7.925-3.965-33.457-12.336-63.726-39.332-23.555-21.012-39.457-46.961-44.082-54.89-4.617-7.938-.04-11.813 3.476-16.173 8.578-10.652 17.168-21.82 19.809-27.105 2.644-5.29 1.32-9.918-.664-13.883-1.977-3.965-17.824-42.969-24.426-58.84-6.437-15.445-12.965-13.36-17.832-13.601-4.617-.231-9.902-.278-15.187-.278-5.282 0-13.868 1.98-21.133 9.918-7.262 7.934-27.73 27.102-27.73 66.106s28.394 76.683 32.355 81.972c3.96 5.29 55.879 85.328 135.367 119.649 18.906 8.172 33.664 13.043 45.176 16.695 18.984 6.031 36.254 5.18 49.91 3.14 15.226-2.277 46.879-19.171 53.488-37.68 6.602-18.51 6.602-34.374 4.617-37.683-1.976-3.304-7.261-5.285-15.183-9.254zm0 0" fill-rule="evenodd"/></symbol></symbol><symbol viewBox="0 0 48 48" id="icons8-viber" xmlns="http://www.w3.org/2000/svg"><path d="M24 5C21.361 5 13.33 5 8.89 9.054 6.246 11.688 5 15.494 5 21v3c0 5.506 1.246 9.312 3.921 11.976 1.332 1.215 3.148 2.186 5.368 2.857l.711.214v5.328c0 .625.181.625.241.625.123 0 .32-.039.694-.371.09-.089.75-.803 3.96-4.399l.324-.363.485.031c1.075.067 2.184.102 3.296.102 2.639 0 10.67 0 15.11-4.055C41.753 33.311 43 29.505 43 24v-3c0-5.506-1.246-9.312-3.921-11.976C34.67 5 26.639 5 24 5z"/><path d="M33.451 28.854c-1.111-.936-1.624-1.219-3.158-2.14-.639-.383-1.613-.714-2.124-.714-.349 0-.767.267-1.023.523-.656.656-.871 1.477-2.021 1.477-1.125 0-3.09-1.145-4.5-2.625C19.145 23.965 18 22 18 20.875c0-1.15.806-1.38 1.462-2.037.256-.255.538-.673.538-1.022 0-.511-.331-1.47-.714-2.109-.921-1.535-1.203-2.048-2.14-3.158-.317-.376-.678-.548-1.056-.549-.639-.001-1.478.316-2.046.739-.854.637-1.747 1.504-1.986 2.584a2.57 2.57 0 00-.057.443c-.046 1.125.396 2.267.873 3.234 1.123 2.279 2.609 4.485 4.226 6.455.517.63 1.08 1.216 1.663 1.782a21.91 21.91 0 001.782 1.663c1.97 1.617 4.176 3.103 6.455 4.226.958.472 2.086.906 3.2.874a2.59 2.59 0 00.477-.058c1.08-.238 1.947-1.132 2.584-1.986.423-.568.74-1.406.739-2.046-.001-.378-.173-.739-.549-1.056zM34 24a1 1 0 01-1-1v-1c0-4.962-4.038-9-9-9a1 1 0 010-2c6.065 0 11 4.935 11 11v1a1 1 0 01-1 1zm-6.142-2a1 1 0 01-.967-.748 2.988 2.988 0 00-2.141-2.142 1 1 0 01.501-1.937 4.994 4.994 0 013.575 3.574A1 1 0 0127.858 22z"/><path d="M31 23a1 1 0 01-1-1 5.993 5.993 0 00-5.678-5.986 1 1 0 11.105-1.997A7.993 7.993 0 0132 22a1 1 0 01-1 1z"/><path d="M24 4c-4.5 0-11.512.414-15.784 4.316C5.196 11.323 4 15.541 4 21c0 .452-.002.956.002 1.5-.004.543-.002 1.047-.002 1.499 0 5.459 1.196 9.677 4.216 12.684 1.626 1.485 3.654 2.462 5.784 3.106v4.586C14 45.971 15.049 46 15.241 46h.009c.494-.002.921-.244 1.349-.624.161-.143 2.02-2.215 4.042-4.481 1.204.077 2.348.105 3.358.105 4.5 0 11.511-.415 15.784-4.317 3.019-3.006 4.216-7.225 4.216-12.684 0-.452.002-.956-.002-1.5.004-.544.002-1.047.002-1.5 0-5.459-1.196-9.677-4.216-12.684C35.511 4.414 28.5 4 24 4zm17 19.651v.348c0 4.906-1.045 8.249-3.286 10.512C33.832 38 26.437 38 23.999 38c-.742 0-1.946-.001-3.367-.1-.395.444-4.632 5.183-4.632 5.183V37.22c-2.104-.505-4.183-1.333-5.714-2.708C8.045 32.248 7 28.905 7 23.999v-.348c0-.351-.001-.73.002-1.173-.003-.4-.003-.778-.002-1.13V21c0-4.906 1.045-8.249 3.286-10.512C14.167 6.999 21.563 6.999 24 6.999c2.437 0 9.832 0 13.713 3.489 2.242 2.263 3.286 5.606 3.286 10.512v.348c0 .351.001.73-.002 1.173.003.401.003.779.003 1.13z"/></symbol><symbol viewBox="0 0 29 40" id="leaf" xmlns="http://www.w3.org/2000/svg"><path d="M24.214.398s-3.253 3.129-6.77 4.391C-8.602 14.133 2.383 32.341 2.741 32.401c0 0 1.461-2.522 3.434-3.961C18.694 19.312 21.239 8.804 21.239 8.804S18.43 21.448 7.291 29.315c-2.46 1.737-4.125 6.013-4.83 10.286 0 0 1.743-.698 2.493-.887.293-1.893.904-3.705 1.938-5.324 15.567 1.838 20.665-10.602 21.331-14.941C29.794 8.204 24.214.398 24.214.398z"/></symbol><symbol viewBox="0 0 15 14" id="link" xmlns="http://www.w3.org/2000/svg"><path d="M12.967 6.202l-2.571 2.57a3.634 3.634 0 01-5.139 0 3.67 3.67 0 01-.552-.733L5.9 6.844c.056-.056.127-.089.194-.128.082.282.226.55.448.771a1.82 1.82 0 002.57 0l2.569-2.569a1.819 1.819 0 000-2.57 1.82 1.82 0 00-2.569 0l-.914.915A4.557 4.557 0 005.88 3.01l1.947-1.947a3.635 3.635 0 015.14 5.139zm-6.795 4.226l-.915.914a1.82 1.82 0 01-2.57 0 1.82 1.82 0 010-2.57l2.57-2.57a1.82 1.82 0 012.57 0c.221.222.365.489.449.77.067-.038.136-.071.193-.128l1.194-1.193a3.563 3.563 0 00-.551-.733 3.633 3.633 0 00-5.14 0L1.403 7.487a3.635 3.635 0 005.139 5.14L8.49 10.68a4.563 4.563 0 01-2.318-.252z"/></symbol><symbol viewBox="0 0 488.1 488.1" id="price" xmlns="http://www.w3.org/2000/svg"><path d="M360.8 174.6l-98.1-85.9c-5.2-4.5-11.8-7-18.7-7-6.9 0-13.5 2.5-18.7 7l-34.8 30.5c-2-7.4-3.1-15.2-3.1-23.3 0-19.6 6.2-38 17.4-51.7C215.4 31.2 229.4 24 244 24c31.2 0 56.6 32.2 56.6 71.9 0 6.6 5.4 12 12 12s12-5.4 12-12C324.6 43 288.4 0 244 0c-22 0-42.5 10.3-57.8 29-14.7 18-22.8 41.7-22.8 66.9 0 14.2 2.6 27.9 7.5 40.5l-43.6 38.2c-10.9 9.6-17.2 23.4-17.2 37.9v215.4c0 33.2 27 60.2 60.2 60.2h147.5c33.2 0 60.2-27 60.2-60.2V212.5c0-14.5-6.3-28.3-17.2-37.9zM354 427.9c0 20-16.2 36.2-36.2 36.2H170.2c-20 0-36.2-16.2-36.2-36.2V212.5c0-7.6 3.3-14.9 9-19.9l39.5-34.6 3.6 4.8c15.3 18.7 35.8 29 57.8 29 6.6 0 12-5.4 12-12s-5.4-12-12-12c-14.7 0-28.6-7.2-39.2-20.2-1.4-1.8-2.8-3.6-4.1-5.5l40.4-35.4c1-.9 2.1-1.1 2.9-1.1s1.9.2 2.9 1.1l98.1 85.9c5.7 5 9 12.3 9 19.9v215.4h.1z"/><path d="M257.2 303.5h-26.4c-9.3 0-16.9-7.6-16.9-16.9s7.6-16.9 16.9-16.9h46.5c6.6 0 12-5.4 12-12s-5.4-12-12-12H256v-15.6c0-6.6-5.4-12-12-12s-12 5.4-12 12v15.6h-1.2c-22.6 0-40.9 18.4-40.9 40.9 0 22.6 18.4 40.9 40.9 40.9h26.4c9.3 0 16.9 7.6 16.9 16.9s-7.6 16.9-16.9 16.9h-47.4c-6.6 0-12 5.4-12 12s5.4 12 12 12H232v15.9c0 6.6 5.4 12 12 12s12-5.4 12-12v-15.9h1.7c22.3-.3 40.4-18.5 40.4-40.9 0-22.6-18.4-40.9-40.9-40.9z"/></symbol><symbol viewBox="0 0 15 15" id="search" xmlns="http://www.w3.org/2000/svg"><path d="M13.977 12.501l-2.794-2.794a5.583 5.583 0 001.01-3.251c0-.777-.151-1.519-.452-2.228a5.742 5.742 0 00-1.222-1.833 5.75 5.75 0 00-1.833-1.223A5.647 5.647 0 006.457.72c-.777 0-1.519.151-2.228.452a5.729 5.729 0 00-1.833 1.223 5.729 5.729 0 00-1.223 1.833 5.642 5.642 0 00-.452 2.228c0 .777.151 1.52.452 2.229a5.75 5.75 0 001.223 1.833c.513.513 1.124.92 1.833 1.222a5.624 5.624 0 002.228.452 5.575 5.575 0 003.251-1.01l2.794 2.786a.97.97 0 00.734.309c.282 0 .527-.103.733-.309.206-.206.309-.451.309-.733a.995.995 0 00-.301-.734zM9.036 9.035c-.715.714-1.574 1.071-2.579 1.071-1.005 0-1.864-.357-2.578-1.071-.715-.715-1.072-1.574-1.072-2.579 0-1.005.357-1.864 1.072-2.578.714-.715 1.573-1.072 2.578-1.072s1.864.357 2.579 1.072c.714.714 1.071 1.573 1.071 2.578S9.75 8.32 9.036 9.035z"/></symbol><symbol viewBox="-23 -21 682 682.667" id="whatsapp" xmlns="http://www.w3.org/2000/svg"><path d="M544.387 93.008C484.512 33.063 404.883.035 320.05 0 145.246 0 2.98 142.262 2.91 317.113c-.024 55.895 14.577 110.457 42.331 158.551L.25 640l168.121-44.102c46.324 25.27 98.477 38.586 151.55 38.602h.134c174.785 0 317.066-142.273 317.132-317.133.036-84.742-32.921-164.418-92.8-224.36zM320.05 580.94h-.11c-47.296-.02-93.683-12.73-134.16-36.742l-9.62-5.715-99.766 26.172 26.628-97.27-6.27-9.972c-26.386-41.969-40.32-90.476-40.296-140.281.055-145.332 118.305-263.57 263.7-263.57 70.406.023 136.59 27.476 186.355 77.3s77.156 116.051 77.133 186.485C583.582 462.69 465.34 580.94 320.05 580.94zm144.586-197.418c-7.922-3.968-46.883-23.132-54.149-25.78-7.258-2.645-12.547-3.962-17.824 3.968-5.285 7.93-20.469 25.781-25.094 31.066-4.625 5.29-9.242 5.953-17.168 1.985-7.925-3.965-33.457-12.336-63.726-39.332-23.555-21.012-39.457-46.961-44.082-54.89-4.617-7.938-.04-11.813 3.476-16.173 8.578-10.652 17.168-21.82 19.809-27.105 2.644-5.29 1.32-9.918-.664-13.883-1.977-3.965-17.824-42.969-24.426-58.84-6.437-15.445-12.965-13.36-17.832-13.601-4.617-.231-9.902-.278-15.187-.278-5.282 0-13.868 1.98-21.133 9.918-7.262 7.934-27.73 27.102-27.73 66.106s28.394 76.683 32.355 81.972c3.96 5.29 55.879 85.328 135.367 119.649 18.906 8.172 33.664 13.043 45.176 16.695 18.984 6.031 36.254 5.18 49.91 3.14 15.226-2.277 46.879-19.171 53.488-37.68 6.602-18.51 6.602-34.374 4.617-37.683-1.976-3.304-7.261-5.285-15.183-9.254zm0 0" fill-rule="evenodd"/></symbol></svg>